<svg version="1.1" id="Layer_1" xmlns="http://www.w3.org/2000/svg" xmlns:xlink="http://www.w3.org/1999/xlink" x="0px" y="0px"
	 width="100%" viewBox="0 0 200 200" enable-background="new 0 0 200 200" xml:space="preserve">
<path fill="#AA3557" opacity="1.000000" stroke="none" 
	d="
M1.000001,187.000000 
	C1.000000,129.979111 1.000000,72.958206 1.322212,15.687099 
	C4.594162,11.969065 7.483615,8.447207 10.521371,5.058288 
	C11.858833,3.566215 13.497879,2.344476 15.000000,1.000000 
	C72.020897,1.000000 129.041794,1.000000 186.312897,1.322203 
	C190.030930,4.594147 193.552780,7.483610 196.941696,10.521375 
	C198.433777,11.858836 199.655518,13.497880 201.000000,15.000001 
	C201.000000,72.020897 201.000000,129.041794 200.677780,186.312912 
	C197.405838,190.030945 194.516388,193.552811 191.478638,196.941696 
	C190.141159,198.433762 188.502121,199.655502 187.000000,201.000000 
	C129.979111,201.000000 72.958206,201.000000 15.687099,200.677795 
	C11.969063,197.405838 8.447202,194.516373 5.058289,191.478607 
	C3.566215,190.141159 2.344477,188.502121 1.000001,187.000000 
M96.715088,178.739349 
	C96.715088,183.487869 96.715088,188.236374 96.715088,192.860962 
	C100.048637,192.860962 102.453484,192.860962 104.896996,192.860962 
	C105.051514,191.824326 105.347626,191.132385 105.215042,190.535721 
	C102.634048,178.920395 108.522446,174.400513 118.917870,170.677155 
	C135.048401,164.899628 148.374435,154.158249 154.313080,137.554230 
	C166.213837,104.280540 161.999084,73.267960 137.668961,46.460300 
	C128.842361,36.734898 119.106773,27.837511 109.865097,18.484097 
	C106.878510,15.461407 104.144577,12.189079 102.691536,10.578659 
	C93.112885,19.188211 83.715065,27.164366 74.885780,35.726780 
	C68.340950,42.073788 61.857658,48.691998 56.529762,56.046295 
	C41.885811,76.259880 39.319401,99.198097 43.247143,123.210976 
	C45.773922,138.658859 53.001083,151.734421 65.817688,160.687134 
	C73.763268,166.237305 83.066254,169.834961 91.712303,174.399277 
	C93.476288,175.330490 95.027565,176.664642 96.715088,178.739349 
z"/>
<path fill="#000000" opacity="1.000000" stroke="none" 
	d="
M14.525872,1.000000 
	C13.497879,2.344476 11.858833,3.566215 10.521371,5.058288 
	C7.483615,8.447207 4.594162,11.969065 1.322212,15.218441 
	C1.000000,10.409401 1.000000,5.818802 1.000000,1.000000 
	C5.348905,1.000000 9.700325,1.000000 14.525872,1.000000 
z"/>
<path fill="#000000" opacity="1.000000" stroke="none" 
	d="
M201.000000,14.525873 
	C199.655518,13.497880 198.433777,11.858836 196.941696,10.521375 
	C193.552780,7.483610 190.030930,4.594147 186.781555,1.322203 
	C191.590591,1.000000 196.181198,1.000000 201.000000,1.000000 
	C201.000000,5.348905 201.000000,9.700325 201.000000,14.525873 
z"/>
<path fill="#000000" opacity="1.000000" stroke="none" 
	d="
M1.000001,187.474121 
	C2.344477,188.502121 3.566215,190.141159 5.058289,191.478607 
	C8.447202,194.516373 11.969063,197.405838 15.218441,200.677795 
	C10.409401,201.000000 5.818802,201.000000 1.000000,201.000000 
	C1.000000,196.651093 1.000000,192.299683 1.000001,187.474121 
z"/>
<path fill="#000000" opacity="1.000000" stroke="none" 
	d="
M187.474121,201.000000 
	C188.502121,199.655502 190.141159,198.433762 191.478638,196.941696 
	C194.516388,193.552811 197.405838,190.030945 200.677780,186.781570 
	C201.000000,191.590591 201.000000,196.181198 201.000000,201.000000 
	C196.651093,201.000000 192.299683,201.000000 187.474121,201.000000 
z"/>
<path fill="#D8DBDA" opacity="1.000000" stroke="none" 
	d="
M96.695984,178.276199 
	C95.027565,176.664642 93.476288,175.330490 91.712303,174.399277 
	C83.066254,169.834961 73.763268,166.237305 65.817688,160.687134 
	C53.001083,151.734421 45.773922,138.658859 43.247143,123.210976 
	C39.319401,99.198097 41.885811,76.259880 56.529762,56.046295 
	C61.857658,48.691998 68.340950,42.073788 74.885780,35.726780 
	C83.715065,27.164366 93.112885,19.188211 102.691536,10.578659 
	C104.144577,12.189079 106.878510,15.461407 109.865097,18.484097 
	C119.106773,27.837511 128.842361,36.734898 137.668961,46.460300 
	C161.999084,73.267960 166.213837,104.280540 154.313080,137.554230 
	C148.374435,154.158249 135.048401,164.899628 118.917870,170.677155 
	C108.522446,174.400513 102.634048,178.920395 105.215042,190.535721 
	C105.347626,191.132385 105.051514,191.824326 104.896996,192.860962 
	C102.453484,192.860962 100.048637,192.860962 96.715088,192.860962 
	C96.715088,188.236374 96.715088,183.487869 96.695984,178.276199 
M105.260254,84.499863 
	C105.260254,97.327324 105.260254,110.154778 105.260254,122.982239 
	C105.664253,123.055809 106.068253,123.129379 106.472252,123.202950 
	C111.881676,117.519424 117.291107,111.835899 122.708168,106.144356 
	C128.540009,112.170486 128.559464,112.188812 123.705658,117.342377 
	C120.963943,120.253426 118.342598,123.321167 115.323639,125.919312 
	C107.522705,132.632904 103.505714,140.557297 105.131660,151.192673 
	C105.885078,156.120865 105.260239,161.259766 105.260239,166.804672 
	C117.063469,163.015335 127.033302,158.131485 135.294815,150.357651 
	C146.020370,140.265228 150.810318,127.448143 151.944229,112.950455 
	C153.647141,91.178185 148.739212,71.586426 133.323364,55.464390 
	C125.271782,47.043987 116.845818,38.982613 108.661385,30.687614 
	C106.042679,28.033533 103.656441,25.150089 101.163834,22.371588 
	C101.487907,23.061480 101.811989,23.751373 102.136063,24.441265 
	C94.525032,31.180540 86.923965,37.931099 79.300934,44.656776 
	C62.760059,59.250534 51.257492,76.309616 49.910694,99.318306 
	C48.163143,129.173431 58.670383,151.463074 87.585724,163.458557 
	C90.383102,164.619049 93.291611,165.511642 96.416351,166.623932 
	C96.580170,165.174347 96.717781,164.522659 96.718201,163.870895 
	C96.732399,141.872330 96.783119,119.873444 96.642723,97.875793 
	C96.631470,96.111473 95.693703,93.997169 94.500877,92.654671 
	C87.335159,84.589790 79.968948,76.703049 72.639442,68.723495 
	C74.445251,66.553368 75.996651,64.688988 77.857948,62.452179 
	C84.325775,69.221489 90.070404,75.233902 96.894150,82.375725 
	C96.894150,69.144821 96.894150,57.580616 96.894150,45.793621 
	C99.868889,45.793621 102.282707,45.793621 105.260262,45.793621 
	C105.260262,58.578869 105.260262,71.039360 105.260254,84.499863 
z"/>
<path fill="#AB3758" opacity="1.000000" stroke="none" 
	d="
M105.260254,83.999863 
	C105.260262,71.039360 105.260262,58.578869 105.260262,45.793621 
	C102.282707,45.793621 99.868889,45.793621 96.894150,45.793621 
	C96.894150,57.580616 96.894150,69.144821 96.894150,82.375725 
	C90.070404,75.233902 84.325775,69.221489 77.857948,62.452179 
	C75.996651,64.688988 74.445251,66.553368 72.639442,68.723495 
	C79.968948,76.703049 87.335159,84.589790 94.500877,92.654671 
	C95.693703,93.997169 96.631470,96.111473 96.642723,97.875793 
	C96.783119,119.873444 96.732399,141.872330 96.718201,163.870895 
	C96.717781,164.522659 96.580170,165.174347 96.416351,166.623932 
	C93.291611,165.511642 90.383102,164.619049 87.585724,163.458557 
	C58.670383,151.463074 48.163143,129.173431 49.910694,99.318306 
	C51.257492,76.309616 62.760059,59.250534 79.300934,44.656776 
	C86.923965,37.931099 94.525032,31.180540 102.136063,24.441265 
	C101.811989,23.751373 101.487907,23.061480 101.163834,22.371588 
	C103.656441,25.150089 106.042679,28.033533 108.661385,30.687614 
	C116.845818,38.982613 125.271782,47.043987 133.323364,55.464390 
	C148.739212,71.586426 153.647141,91.178185 151.944229,112.950455 
	C150.810318,127.448143 146.020370,140.265228 135.294815,150.357651 
	C127.033302,158.131485 117.063469,163.015335 105.260239,166.804672 
	C105.260239,161.259766 105.885078,156.120865 105.131660,151.192673 
	C103.505714,140.557297 107.522705,132.632904 115.323639,125.919312 
	C118.342598,123.321167 120.963943,120.253426 123.705658,117.342377 
	C128.559464,112.188812 128.540009,112.170486 122.708168,106.144356 
	C117.291107,111.835899 111.881676,117.519424 106.472252,123.202950 
	C106.068253,123.129379 105.664253,123.055809 105.260254,122.982239 
	C105.260254,110.154778 105.260254,97.327324 105.260254,83.999863 
z"/>
</svg>