<svg version="1.1" id="Layer_1" xmlns="http://www.w3.org/2000/svg" xmlns:xlink="http://www.w3.org/1999/xlink" x="0px" y="0px"
	 width="100%" viewBox="0 0 200 200" enable-background="new 0 0 200 200" xml:space="preserve">
<path fill="#AA3557" opacity="1.000000" stroke="none" 
	d="
M1.000000,187.000000 
	C1.000000,129.979111 1.000000,72.958206 1.322323,15.687172 
	C4.594488,11.969259 7.484100,8.447503 10.521880,5.058560 
	C11.859313,3.566523 13.498057,2.344575 15.000000,1.000000 
	C72.020897,1.000000 129.041794,1.000000 186.312820,1.322322 
	C190.030731,4.594485 193.552490,7.484096 196.941437,10.521878 
	C198.433487,11.859306 199.655426,13.498057 201.000000,15.000002 
	C201.000000,72.020897 201.000000,129.041794 200.677673,186.312820 
	C197.405502,190.030731 194.515900,193.552505 191.478149,196.941467 
	C190.140732,198.433517 188.501953,199.655441 187.000000,201.000000 
	C129.979111,201.000000 72.958206,201.000000 15.687170,200.677673 
	C11.969257,197.405502 8.447499,194.515884 5.058553,191.478119 
	C3.566513,190.140686 2.344575,188.501938 1.000000,187.000000 
M155.196533,35.640087 
	C152.485031,36.380234 149.673950,36.870136 147.078766,37.902645 
	C133.894135,43.148243 123.770363,52.545647 114.450378,62.819817 
	C112.296295,65.194435 110.372360,65.584167 107.547653,65.374611 
	C103.432777,65.069344 99.240257,64.802917 95.165894,65.266838 
	C91.680565,65.663696 89.296837,65.208504 87.024574,62.217052 
	C84.528473,58.930916 81.417610,56.043053 78.273521,53.330673 
	C68.796761,45.155151 59.106461,37.460331 46.072735,35.395718 
	C41.705429,34.703911 40.176434,36.328369 38.699059,39.790665 
	C32.407871,54.534424 31.709358,69.723656 37.183418,84.512047 
	C39.837753,91.682831 37.933823,96.569000 35.818256,103.160172 
	C32.914429,112.207222 27.937931,114.866432 19.624857,114.884178 
	C18.673519,114.886208 17.036224,116.447525 16.894239,117.452225 
	C16.238590,122.091637 18.598274,124.169960 23.223984,123.455933 
	C25.351177,123.127579 27.480972,122.623596 29.614187,122.599052 
	C30.889627,122.584381 33.281826,123.390770 33.266647,123.746902 
	C33.192436,125.488403 32.921803,127.574242 31.872412,128.828903 
	C30.661869,130.276230 28.572628,130.995819 26.850464,132.006760 
	C20.189867,135.916626 20.044607,137.001328 25.684607,143.313202 
	C29.434835,141.138916 33.264961,138.918289 37.174816,136.651459 
	C51.929268,161.003464 75.241203,167.216507 101.125908,167.192230 
	C126.992119,167.167969 150.279785,160.896805 164.912369,136.616699 
	C168.946274,138.962006 172.757355,141.177780 176.489838,143.347839 
	C182.050308,136.431091 181.961121,135.899338 175.080658,131.939835 
	C173.783020,131.193085 172.187927,130.634857 171.333069,129.525146 
	C170.095673,127.918869 169.408035,125.889114 168.485886,124.040009 
	C170.188797,123.596428 171.917725,122.705864 173.589172,122.803123 
	C176.977814,123.000290 180.335327,123.732262 183.853577,124.266212 
	C184.119431,122.895874 184.162720,122.056808 184.446869,121.309296 
	C186.139786,116.855515 185.424179,114.245285 179.872330,114.545944 
	C177.764984,114.660065 175.623520,113.817268 173.480576,113.683456 
	C170.760895,113.513649 169.627029,112.277267 168.815247,109.595757 
	C167.580795,105.518036 165.914749,101.440315 163.665634,97.841560 
	C161.851807,94.939301 161.799683,92.796608 163.094864,89.690628 
	C170.066650,72.971550 170.248657,56.141457 163.182877,39.330753 
	C161.786530,36.008606 159.917892,33.932323 155.196533,35.640087 
z"/>
<path fill="#000000" opacity="1.000000" stroke="none" 
	d="
M14.525872,1.000000 
	C13.498057,2.344575 11.859313,3.566523 10.521880,5.058560 
	C7.484100,8.447503 4.594488,11.969259 1.322323,15.218513 
	C1.000000,10.409401 1.000000,5.818802 1.000000,1.000000 
	C5.348905,1.000000 9.700325,1.000000 14.525872,1.000000 
z"/>
<path fill="#000000" opacity="1.000000" stroke="none" 
	d="
M201.000000,14.525874 
	C199.655426,13.498057 198.433487,11.859306 196.941437,10.521878 
	C193.552490,7.484096 190.030731,4.594485 186.781479,1.322322 
	C191.590591,1.000000 196.181198,1.000000 201.000000,1.000000 
	C201.000000,5.348905 201.000000,9.700325 201.000000,14.525874 
z"/>
<path fill="#000000" opacity="1.000000" stroke="none" 
	d="
M1.000000,187.474121 
	C2.344575,188.501938 3.566513,190.140686 5.058553,191.478119 
	C8.447499,194.515884 11.969257,197.405502 15.218513,200.677673 
	C10.409401,201.000000 5.818802,201.000000 1.000000,201.000000 
	C1.000000,196.651093 1.000000,192.299683 1.000000,187.474121 
z"/>
<path fill="#000000" opacity="1.000000" stroke="none" 
	d="
M187.474136,201.000000 
	C188.501953,199.655441 190.140732,198.433517 191.478149,196.941467 
	C194.515900,193.552505 197.405502,190.030731 200.677673,186.781479 
	C201.000000,191.590591 201.000000,196.181198 201.000000,201.000000 
	C196.651093,201.000000 192.299683,201.000000 187.474136,201.000000 
z"/>
<path fill="#DADFDD" opacity="1.000000" stroke="none" 
	d="
M155.601913,35.594021 
	C159.917892,33.932323 161.786530,36.008606 163.182877,39.330753 
	C170.248657,56.141457 170.066650,72.971550 163.094864,89.690628 
	C161.799683,92.796608 161.851807,94.939301 163.665634,97.841560 
	C165.914749,101.440315 167.580795,105.518036 168.815247,109.595757 
	C169.627029,112.277267 170.760895,113.513649 173.480576,113.683456 
	C175.623520,113.817268 177.764984,114.660065 179.872330,114.545944 
	C185.424179,114.245285 186.139786,116.855515 184.446869,121.309296 
	C184.162720,122.056808 184.119431,122.895874 183.853577,124.266212 
	C180.335327,123.732262 176.977814,123.000290 173.589172,122.803123 
	C171.917725,122.705864 170.188797,123.596428 168.485886,124.040009 
	C169.408035,125.889114 170.095673,127.918869 171.333069,129.525146 
	C172.187927,130.634857 173.783020,131.193085 175.080658,131.939835 
	C181.961121,135.899338 182.050308,136.431091 176.489838,143.347839 
	C172.757355,141.177780 168.946274,138.962006 164.912369,136.616699 
	C150.279785,160.896805 126.992119,167.167969 101.125908,167.192230 
	C75.241203,167.216507 51.929268,161.003464 37.174816,136.651459 
	C33.264961,138.918289 29.434835,141.138916 25.684607,143.313202 
	C20.044607,137.001328 20.189867,135.916626 26.850464,132.006760 
	C28.572628,130.995819 30.661869,130.276230 31.872412,128.828903 
	C32.921803,127.574242 33.192436,125.488403 33.266647,123.746902 
	C33.281826,123.390770 30.889627,122.584381 29.614187,122.599052 
	C27.480972,122.623596 25.351177,123.127579 23.223984,123.455933 
	C18.598274,124.169960 16.238590,122.091637 16.894239,117.452225 
	C17.036224,116.447525 18.673519,114.886208 19.624857,114.884178 
	C27.937931,114.866432 32.914429,112.207222 35.818256,103.160172 
	C37.933823,96.569000 39.837753,91.682831 37.183418,84.512047 
	C31.709358,69.723656 32.407871,54.534424 38.699059,39.790665 
	C40.176434,36.328369 41.705429,34.703911 46.072735,35.395718 
	C59.106461,37.460331 68.796761,45.155151 78.273521,53.330673 
	C81.417610,56.043053 84.528473,58.930916 87.024574,62.217052 
	C89.296837,65.208504 91.680565,65.663696 95.165894,65.266838 
	C99.240257,64.802917 103.432777,65.069344 107.547653,65.374611 
	C110.372360,65.584167 112.296295,65.194435 114.450378,62.819817 
	C123.770363,52.545647 133.894135,43.148243 147.078766,37.902645 
	C149.673950,36.870136 152.485031,36.380234 155.601913,35.594021 
M76.293678,91.184196 
	C70.533691,91.661690 67.312660,94.466606 67.303802,99.012680 
	C67.296104,102.962486 70.610168,106.619888 74.654282,107.124657 
	C78.572792,107.613754 82.481476,104.808609 83.516830,100.764282 
	C84.546959,96.740364 82.021454,93.000740 76.293678,91.184196 
M125.732925,91.190033 
	C120.518440,92.645515 117.714897,96.026421 118.362808,100.077950 
	C119.036926,104.293343 123.119194,107.573235 127.186943,107.167686 
	C131.234543,106.764137 134.604828,103.205452 134.713531,99.220375 
	C134.832413,94.861923 131.763290,91.833374 125.732925,91.190033 
z"/>
<path fill="#AC3D5D" opacity="1.000000" stroke="none" 
	d="
M76.686371,91.207901 
	C82.021454,93.000740 84.546959,96.740364 83.516830,100.764282 
	C82.481476,104.808609 78.572792,107.613754 74.654282,107.124657 
	C70.610168,106.619888 67.296104,102.962486 67.303802,99.012680 
	C67.312660,94.466606 70.533691,91.661690 76.686371,91.207901 
z"/>
<path fill="#AC3D5D" opacity="1.000000" stroke="none" 
	d="
M126.125565,91.161728 
	C131.763290,91.833374 134.832413,94.861923 134.713531,99.220375 
	C134.604828,103.205452 131.234543,106.764137 127.186943,107.167686 
	C123.119194,107.573235 119.036926,104.293343 118.362808,100.077950 
	C117.714897,96.026421 120.518440,92.645515 126.125565,91.161728 
z"/>
</svg>