<svg version="1.1" id="Layer_1" xmlns="http://www.w3.org/2000/svg" xmlns:xlink="http://www.w3.org/1999/xlink" x="0px" y="0px"
	 width="100%" viewBox="0 0 200 200" enable-background="new 0 0 200 200" xml:space="preserve">
<path fill="#AA3556" opacity="1.000000" stroke="none" 
	d="
M0.999999,187.000000 
	C1.000000,129.979111 1.000000,72.958206 1.328362,15.673919 
	C4.599126,11.954220 7.481109,8.443701 10.511626,5.066466 
	C11.852758,3.571897 13.494643,2.347204 15.000000,1.000000 
	C72.020897,1.000000 129.041794,1.000000 186.326080,1.328364 
	C190.045776,4.599129 193.556290,7.481109 196.933533,10.511632 
	C198.428101,11.852758 199.652786,13.494650 201.000000,15.000004 
	C201.000000,72.020897 201.000000,129.041794 200.671661,186.326080 
	C197.400894,190.045792 194.518906,193.556290 191.488388,196.933533 
	C190.147247,198.428101 188.505371,199.652802 187.000000,201.000000 
	C129.979111,201.000000 72.958206,201.000000 15.673914,200.671631 
	C11.954210,197.400864 8.443681,194.518890 5.066453,191.488373 
	C3.571890,190.147247 2.347202,188.505356 0.999999,187.000000 
M117.614922,170.014587 
	C125.779999,170.014557 133.945129,170.031021 142.110138,170.009872 
	C150.378876,169.988464 153.690872,166.780045 153.716156,158.572311 
	C153.766464,142.242767 153.731812,125.912956 153.732224,109.583260 
	C153.732269,107.458519 153.732224,105.333786 153.732224,103.354477 
	C168.020981,99.916313 170.135376,92.896545 160.498428,82.681831 
	C160.155472,82.318321 159.799591,81.966873 159.446121,81.613411 
	C145.307114,67.474457 131.200012,53.303368 117.017105,39.208561 
	C107.246094,29.498236 94.843224,29.428303 85.150780,39.052170 
	C70.843529,53.258190 56.610817,67.539444 42.387726,81.829826 
	C40.751919,83.473381 39.184635,85.252151 37.921570,87.187500 
	C33.581135,93.838196 35.625786,99.546860 43.118652,102.021713 
	C44.791771,102.574333 46.500206,103.020058 48.267769,103.537041 
	C48.267769,105.701759 48.267715,107.528358 48.267780,109.354958 
	C48.268353,125.851288 48.239418,142.347702 48.284763,158.843903 
	C48.301765,165.028442 50.867603,169.489029 55.678135,169.688904 
	C66.753433,170.149094 77.860901,169.834839 89.449730,169.834839 
	C89.449730,153.585678 89.449730,137.836945 89.449730,122.020828 
	C97.385490,122.020828 104.813156,122.020828 112.780464,122.020828 
	C112.780464,124.106209 112.780418,125.895157 112.780472,127.684113 
	C112.780876,140.514587 112.874832,153.346252 112.713745,166.174698 
	C112.675087,169.253082 113.567909,170.531860 117.614922,170.014587 
z"/>
<path fill="#000000" opacity="1.000000" stroke="none" 
	d="
M14.525872,1.000000 
	C13.494643,2.347204 11.852758,3.571897 10.511626,5.066466 
	C7.481109,8.443701 4.599126,11.954220 1.328362,15.205261 
	C1.000000,10.409401 1.000000,5.818802 1.000000,1.000000 
	C5.348905,1.000000 9.700325,1.000000 14.525872,1.000000 
z"/>
<path fill="#000000" opacity="1.000000" stroke="none" 
	d="
M201.000000,14.525875 
	C199.652786,13.494650 198.428101,11.852758 196.933533,10.511632 
	C193.556290,7.481109 190.045776,4.599129 186.794739,1.328364 
	C191.590591,1.000000 196.181198,1.000000 201.000000,1.000000 
	C201.000000,5.348905 201.000000,9.700325 201.000000,14.525875 
z"/>
<path fill="#000000" opacity="1.000000" stroke="none" 
	d="
M0.999999,187.474121 
	C2.347202,188.505356 3.571890,190.147247 5.066453,191.488373 
	C8.443681,194.518890 11.954210,197.400864 15.205256,200.671631 
	C10.409401,201.000000 5.818802,201.000000 1.000000,201.000000 
	C1.000000,196.651093 1.000000,192.299683 0.999999,187.474121 
z"/>
<path fill="#000000" opacity="1.000000" stroke="none" 
	d="
M187.474121,201.000000 
	C188.505371,199.652802 190.147247,198.428101 191.488388,196.933533 
	C194.518906,193.556290 197.400894,190.045792 200.671661,186.794739 
	C201.000000,191.590591 201.000000,196.181198 201.000000,201.000000 
	C196.651093,201.000000 192.299683,201.000000 187.474121,201.000000 
z"/>
<path fill="#FCF9FA" opacity="1.000000" stroke="none" 
	d="
M117.128372,170.014404 
	C113.567909,170.531860 112.675087,169.253082 112.713745,166.174698 
	C112.874832,153.346252 112.780876,140.514587 112.780472,127.684113 
	C112.780418,125.895157 112.780464,124.106209 112.780464,122.020828 
	C104.813156,122.020828 97.385490,122.020828 89.449730,122.020828 
	C89.449730,137.836945 89.449730,153.585678 89.449730,169.834839 
	C77.860901,169.834839 66.753433,170.149094 55.678135,169.688904 
	C50.867603,169.489029 48.301765,165.028442 48.284763,158.843903 
	C48.239418,142.347702 48.268353,125.851288 48.267780,109.354958 
	C48.267715,107.528358 48.267769,105.701759 48.267769,103.537041 
	C46.500206,103.020058 44.791771,102.574333 43.118652,102.021713 
	C35.625786,99.546860 33.581135,93.838196 37.921570,87.187500 
	C39.184635,85.252151 40.751919,83.473381 42.387726,81.829826 
	C56.610817,67.539444 70.843529,53.258190 85.150780,39.052170 
	C94.843224,29.428303 107.246094,29.498236 117.017105,39.208561 
	C131.200012,53.303368 145.307114,67.474457 159.446121,81.613411 
	C159.799591,81.966873 160.155472,82.318321 160.498428,82.681831 
	C170.135376,92.896545 168.020981,99.916313 153.732224,103.354477 
	C153.732224,105.333786 153.732269,107.458519 153.732224,109.583260 
	C153.731812,125.912956 153.766464,142.242767 153.716156,158.572311 
	C153.690872,166.780045 150.378876,169.988464 142.110138,170.009872 
	C133.945129,170.031021 125.779999,170.014557 117.128372,170.014404 
M56.762897,114.500504 
	C56.762897,130.085159 56.762897,145.669830 56.762897,161.364151 
	C65.211182,161.364151 72.927605,161.364151 80.963486,161.364151 
	C80.963486,148.180054 80.925339,135.373291 80.979561,122.566940 
	C81.006706,116.155746 83.712524,113.345833 90.032646,113.249420 
	C97.358116,113.137657 104.688019,113.134285 112.013344,113.250610 
	C118.322868,113.350800 120.990295,116.158966 121.021561,122.608414 
	C121.076469,133.931976 121.027603,145.255981 121.051407,156.579758 
	C121.054764,158.173813 121.222824,159.767502 121.311394,161.304947 
	C129.488235,161.304947 137.187439,161.304947 145.373871,161.304947 
	C145.373871,138.956909 145.373871,117.042969 145.373871,95.113632 
	C149.849579,94.692635 153.833572,94.317894 158.668457,93.863113 
	C157.232910,91.856934 156.612091,90.682884 155.716064,89.782806 
	C140.560654,74.558647 125.451767,59.286545 110.147430,44.213047 
	C104.381737,38.534317 97.129845,38.920177 91.083633,44.919632 
	C76.425919,59.463985 61.852901,74.093864 47.290051,88.733345 
	C45.979042,90.051262 44.989231,91.688698 43.185001,94.047455 
	C48.317902,94.420792 52.247196,94.706581 56.762890,95.035027 
	C56.762890,101.260216 56.762890,107.380531 56.762897,114.500504 
z"/>
<path fill="#AB3658" opacity="1.000000" stroke="none" 
	d="
M56.762894,114.000679 
	C56.762890,107.380531 56.762890,101.260216 56.762890,95.035027 
	C52.247196,94.706581 48.317902,94.420792 43.185001,94.047455 
	C44.989231,91.688698 45.979042,90.051262 47.290051,88.733345 
	C61.852901,74.093864 76.425919,59.463985 91.083633,44.919632 
	C97.129845,38.920177 104.381737,38.534317 110.147430,44.213047 
	C125.451767,59.286545 140.560654,74.558647 155.716064,89.782806 
	C156.612091,90.682884 157.232910,91.856934 158.668457,93.863113 
	C153.833572,94.317894 149.849579,94.692635 145.373871,95.113632 
	C145.373871,117.042969 145.373871,138.956909 145.373871,161.304947 
	C137.187439,161.304947 129.488235,161.304947 121.311394,161.304947 
	C121.222824,159.767502 121.054764,158.173813 121.051407,156.579758 
	C121.027603,145.255981 121.076469,133.931976 121.021561,122.608414 
	C120.990295,116.158966 118.322868,113.350800 112.013344,113.250610 
	C104.688019,113.134285 97.358116,113.137657 90.032646,113.249420 
	C83.712524,113.345833 81.006706,116.155746 80.979561,122.566940 
	C80.925339,135.373291 80.963486,148.180054 80.963486,161.364151 
	C72.927605,161.364151 65.211182,161.364151 56.762897,161.364151 
	C56.762897,145.669830 56.762897,130.085159 56.762894,114.000679 
z"/>
</svg>