<svg version="1.1" id="Layer_1" xmlns="http://www.w3.org/2000/svg" xmlns:xlink="http://www.w3.org/1999/xlink" x="0px" y="0px"
	 width="100%" viewBox="0 0 200 200" enable-background="new 0 0 200 200" xml:space="preserve">
<path fill="#AA3557" opacity="1.000000" stroke="none" 
	d="
M0.999998,187.000000 
	C1.000000,129.979111 1.000000,72.958206 1.322176,15.687452 
	C4.594351,11.969565 7.484119,8.447553 10.522058,5.058355 
	C11.859412,3.566371 13.498116,2.344505 15.000000,1.000000 
	C72.020897,1.000000 129.041794,1.000000 186.312561,1.322181 
	C190.030441,4.594359 193.552444,7.484123 196.941650,10.522060 
	C198.433640,11.859405 199.655502,13.498119 201.000000,15.000001 
	C201.000000,72.020897 201.000000,129.041794 200.677826,186.312531 
	C197.405655,190.030426 194.515884,193.552444 191.477936,196.941650 
	C190.140564,198.433624 188.501877,199.655487 187.000000,201.000000 
	C129.979111,201.000000 72.958206,201.000000 15.687451,200.677841 
	C11.969565,197.405670 8.447543,194.515915 5.058355,191.477966 
	C3.566371,190.140610 2.344506,188.501892 0.999998,187.000000 
M122.442490,74.714577 
	C103.063477,70.817368 89.439705,81.736946 85.108940,104.811081 
	C84.209496,104.928772 83.249725,105.087776 82.283493,105.175827 
	C65.381348,106.715958 54.587006,118.868423 55.164234,135.466125 
	C55.649002,149.405228 67.940659,162.741882 84.694199,162.391373 
	C107.162041,161.921341 129.647491,162.354340 152.124619,162.244324 
	C165.391983,162.179382 174.923233,155.481995 180.944992,144.135040 
	C187.127243,132.485718 186.424210,120.644348 179.067947,109.661224 
	C172.403656,99.711212 162.913620,94.729973 150.719269,95.092323 
	C148.206818,95.166985 145.293808,96.314110 143.616333,92.414337 
	C139.735031,83.391159 132.914581,77.367569 122.442490,74.714577 
M41.787651,96.285019 
	C42.868206,104.835098 46.209942,112.100784 53.846989,117.668137 
	C55.355988,115.616951 56.675468,113.823372 57.341976,112.917389 
	C54.714970,107.798569 51.571152,103.675377 50.439907,99.059006 
	C47.947212,88.886803 52.153904,80.101768 60.870544,74.794014 
	C68.401154,70.208458 78.199165,71.003967 85.952660,77.241737 
	C88.677238,79.433693 90.721558,80.728981 93.212418,77.207726 
	C95.773422,73.587326 92.347267,72.502090 90.526382,71.042068 
	C80.609474,63.090458 69.429337,61.795467 58.373756,67.424568 
	C47.384426,73.019936 41.759274,82.776009 41.787651,96.285019 
M38.018021,123.522636 
	C36.490826,125.047562 34.645985,126.377357 33.547482,128.165619 
	C32.808208,129.369080 33.123985,131.220642 32.967758,132.782272 
	C34.517342,132.841217 36.594921,133.569122 37.521042,132.838150 
	C40.760681,130.281143 43.536671,127.147224 46.613922,124.371155 
	C50.033108,121.286613 49.716724,118.882637 44.146683,116.152115 
	C42.482353,118.183998 40.502213,120.601440 38.018021,123.522636 
M107.691032,54.327477 
	C104.216095,57.630329 100.830879,61.034676 97.241287,64.207825 
	C93.562119,67.460152 94.578094,69.682388 99.504036,72.151947 
	C102.715591,68.553078 105.948029,64.539406 109.601372,60.954689 
	C112.803001,57.813194 111.924423,55.950699 107.691032,54.327477 
M45.582176,71.594498 
	C49.434441,69.622459 50.323250,67.339806 46.667267,64.148994 
	C44.059723,61.873230 41.625271,59.375950 39.291451,56.815399 
	C36.117329,53.332901 33.806099,54.109127 31.466194,58.569984 
	C35.914700,62.765625 40.436638,67.030533 45.582176,71.594498 
M74.837753,42.820415 
	C74.621368,38.212822 71.623543,40.017548 69.117065,40.006245 
	C69.117065,46.747410 69.117065,53.095238 69.117065,59.356789 
	C73.317848,60.553741 75.126343,59.378445 74.892578,55.186604 
	C74.680931,51.391327 74.847351,47.574970 74.837753,42.820415 
M22.645422,90.745377 
	C17.713223,90.214539 17.060173,92.747978 18.374603,97.247444 
	C23.635138,97.247444 28.910202,97.432587 34.154427,97.112473 
	C35.407684,97.035973 36.558128,95.275131 37.755856,94.288971 
	C36.522549,93.112366 35.407734,91.119888 34.032555,90.920181 
	C30.623144,90.425034 27.094765,90.749069 22.645422,90.745377 
z"/>
<path fill="#000000" opacity="1.000000" stroke="none" 
	d="
M14.525872,1.000000 
	C13.498116,2.344505 11.859412,3.566371 10.522058,5.058355 
	C7.484119,8.447553 4.594351,11.969565 1.322176,15.218795 
	C1.000000,10.409401 1.000000,5.818802 1.000000,1.000000 
	C5.348905,1.000000 9.700325,1.000000 14.525872,1.000000 
z"/>
<path fill="#000000" opacity="1.000000" stroke="none" 
	d="
M201.000000,14.525873 
	C199.655502,13.498119 198.433640,11.859405 196.941650,10.522060 
	C193.552444,7.484123 190.030441,4.594359 186.781219,1.322181 
	C191.590591,1.000000 196.181198,1.000000 201.000000,1.000000 
	C201.000000,5.348905 201.000000,9.700325 201.000000,14.525873 
z"/>
<path fill="#000000" opacity="1.000000" stroke="none" 
	d="
M0.999998,187.474121 
	C2.344506,188.501892 3.566371,190.140610 5.058355,191.477966 
	C8.447543,194.515915 11.969565,197.405670 15.218794,200.677841 
	C10.409401,201.000000 5.818802,201.000000 1.000000,201.000000 
	C1.000000,196.651093 1.000000,192.299683 0.999998,187.474121 
z"/>
<path fill="#000000" opacity="1.000000" stroke="none" 
	d="
M187.474121,201.000000 
	C188.501877,199.655487 190.140564,198.433624 191.477936,196.941650 
	C194.515884,193.552444 197.405655,190.030426 200.677826,186.781189 
	C201.000000,191.590591 201.000000,196.181198 201.000000,201.000000 
	C196.651093,201.000000 192.299683,201.000000 187.474121,201.000000 
z"/>
<path fill="#D8DAD9" opacity="1.000000" stroke="none" 
	d="
M122.861664,74.749298 
	C132.914581,77.367569 139.735031,83.391159 143.616333,92.414337 
	C145.293808,96.314110 148.206818,95.166985 150.719269,95.092323 
	C162.913620,94.729973 172.403656,99.711212 179.067947,109.661224 
	C186.424210,120.644348 187.127243,132.485718 180.944992,144.135040 
	C174.923233,155.481995 165.391983,162.179382 152.124619,162.244324 
	C129.647491,162.354340 107.162041,161.921341 84.694199,162.391373 
	C67.940659,162.741882 55.649002,149.405228 55.164234,135.466125 
	C54.587006,118.868423 65.381348,106.715958 82.283493,105.175827 
	C83.249725,105.087776 84.209496,104.928772 85.108940,104.811081 
	C89.439705,81.736946 103.063477,70.817368 122.861664,74.749298 
M161.132675,105.995667 
	C157.086533,105.328705 152.915024,103.684494 149.018600,104.184425 
	C138.766068,105.499886 138.813721,105.871277 135.111694,96.109314 
	C132.108261,88.189461 121.556496,81.646317 113.732292,82.851944 
	C103.364059,84.449593 95.076103,93.232727 94.779686,102.936928 
	C94.422020,114.646324 94.417038,114.883194 83.033699,114.643616 
	C71.459351,114.400017 64.458717,123.738480 64.090874,133.613754 
	C63.699425,144.122955 72.966385,153.196808 83.219894,153.209915 
	C106.026855,153.239090 128.833908,153.231064 151.640823,153.189697 
	C153.443375,153.186432 155.328217,153.078903 157.033707,152.557922 
	C166.667908,149.614914 173.561340,143.528931 175.075333,133.392487 
	C176.821869,121.699104 172.801865,112.131248 161.132675,105.995667 
z"/>
<path fill="#D8DCDA" opacity="1.000000" stroke="none" 
	d="
M41.768272,95.836853 
	C41.759274,82.776009 47.384426,73.019936 58.373756,67.424568 
	C69.429337,61.795467 80.609474,63.090458 90.526382,71.042068 
	C92.347267,72.502090 95.773422,73.587326 93.212418,77.207726 
	C90.721558,80.728981 88.677238,79.433693 85.952660,77.241737 
	C78.199165,71.003967 68.401154,70.208458 60.870544,74.794014 
	C52.153904,80.101768 47.947212,88.886803 50.439907,99.059006 
	C51.571152,103.675377 54.714970,107.798569 57.341976,112.917389 
	C56.675468,113.823372 55.355988,115.616951 53.846989,117.668137 
	C46.209942,112.100784 42.868206,104.835098 41.768272,95.836853 
z"/>
<path fill="#D7DCDA" opacity="1.000000" stroke="none" 
	d="
M38.270042,123.270767 
	C40.502213,120.601440 42.482353,118.183998 44.146683,116.152115 
	C49.716724,118.882637 50.033108,121.286613 46.613922,124.371155 
	C43.536671,127.147224 40.760681,130.281143 37.521042,132.838150 
	C36.594921,133.569122 34.517342,132.841217 32.967758,132.782257 
	C33.123985,131.220642 32.808208,129.369080 33.547482,128.165619 
	C34.645985,126.377357 36.490826,125.047562 38.270042,123.270767 
z"/>
<path fill="#D7DCDA" opacity="1.000000" stroke="none" 
	d="
M108.041122,54.315685 
	C111.924423,55.950699 112.803001,57.813194 109.601372,60.954689 
	C105.948029,64.539406 102.715591,68.553078 99.504036,72.151947 
	C94.578094,69.682388 93.562119,67.460152 97.241287,64.207825 
	C100.830879,61.034676 104.216095,57.630329 108.041122,54.315685 
z"/>
<path fill="#D8DDDB" opacity="1.000000" stroke="none" 
	d="
M45.270378,71.444962 
	C40.436638,67.030533 35.914700,62.765625 31.466194,58.569984 
	C33.806099,54.109127 36.117329,53.332901 39.291451,56.815399 
	C41.625271,59.375950 44.059723,61.873230 46.667267,64.148994 
	C50.323250,67.339806 49.434441,69.622459 45.270378,71.444962 
z"/>
<path fill="#D3D8D6" opacity="1.000000" stroke="none" 
	d="
M74.842415,43.294159 
	C74.847351,47.574970 74.680931,51.391327 74.892578,55.186604 
	C75.126343,59.378445 73.317848,60.553741 69.117065,59.356789 
	C69.117065,53.095238 69.117065,46.747410 69.117065,40.006245 
	C71.623543,40.017548 74.621368,38.212822 74.842415,43.294159 
z"/>
<path fill="#D9DEDC" opacity="1.000000" stroke="none" 
	d="
M23.129799,90.744698 
	C27.094765,90.749069 30.623144,90.425034 34.032555,90.920181 
	C35.407734,91.119888 36.522549,93.112366 37.755856,94.288971 
	C36.558128,95.275131 35.407684,97.035973 34.154427,97.112473 
	C28.910202,97.432587 23.635138,97.247444 18.374603,97.247444 
	C17.060173,92.747978 17.713223,90.214539 23.129799,90.744698 
z"/>
<path fill="#AA3456" opacity="1.000000" stroke="none" 
	d="
M161.490631,106.144928 
	C172.801865,112.131248 176.821869,121.699104 175.075333,133.392487 
	C173.561340,143.528931 166.667908,149.614914 157.033707,152.557922 
	C155.328217,153.078903 153.443375,153.186432 151.640823,153.189697 
	C128.833908,153.231064 106.026855,153.239090 83.219894,153.209915 
	C72.966385,153.196808 63.699425,144.122955 64.090874,133.613754 
	C64.458717,123.738480 71.459351,114.400017 83.033699,114.643616 
	C94.417038,114.883194 94.422020,114.646324 94.779686,102.936928 
	C95.076103,93.232727 103.364059,84.449593 113.732292,82.851944 
	C121.556496,81.646317 132.108261,88.189461 135.111694,96.109314 
	C138.813721,105.871277 138.766068,105.499886 149.018600,104.184425 
	C152.915024,103.684494 157.086533,105.328705 161.490631,106.144928 
z"/>
</svg>